#!OML:ASF H:\GeneralSubjects\Female5\Project 1\Capture day 1\Session 1\Female5.ASF
:FULLY-SPECIFIED
:DEGREES
98
root -22.2353 15.8693 6.52557 -173.02 -14.4481 -175.559
lowerback 5.16022 1.44732 2.96497
upperback -10.217 1.72167 1.3332
thorax -14.0253 0.272824 -0.398996
lowerneck -8.18726 -0.0214816 -0.894879
upperneck 30.2832 -3.05263 2.51868
head 11.184 -2.13152 0.530502
rclavicle 3.33772e-014 2.88238e-015
rhumerus 14.3988 22.1247 -44.9944
rradius 135.458
rwrist -76.9769
rhand -34.1732 -12.6032
rfingers 7.12502
rthumb -7.34677 -42.4557
lclavicle 3.33772e-014 2.88238e-015
lhumerus 26.708 -32.6605 56.7677
lradius 128.477
lwrist 69.2706
lhand -35.3368 38.9814
lfingers 7.12502
lthumb -8.46978 68.7916
rfemur 10.5565 50.6134 42.9919
rtibia -9.01086
rfoot -59.3643 -41.596
rtoes 28.9215
lfemur -3.5901 -27.3521 -7.22156
ltibia 5.44329
lfoot -27.3144 25.5056
ltoes -63.7359
99
root -22.241 15.8692 6.52282 -173.209 -14.469 -175.504
lowerback 5.23331 1.29542 2.98444
upperback -10.1569 1.54122 1.49852
thorax -14.0103 0.19934 -0.198826
lowerneck -7.83197 0.212873 -0.814992
upperneck 30.3764 -2.66953 2.14164
head 11.1326 -2.0154 0.424248
rclavicle 1.80149e-015 -1.04362e-015
rhumerus 15.1166 23.466 -44.9212
rradius 136.449
rwrist -75.1818
rhand -36.1622 -12.5765
rfingers 7.12502
rthumb -9.26628 -42.3529
lclavicle 1.80149e-015 -1.04362e-015
lhumerus 26.6282 -33.7814 57.6421
lradius 129.499
lwrist 67.1043
lhand -36.7237 39.3185
lfingers 7.12502
lthumb -9.80812 69.07
rfemur 10.7236 50.4701 43.1103
rtibia -9.01784
rfoot -59.1439 -41.6864
rtoes 29.0513
lfemur -3.52234 -26.8857 -7.20582
ltibia 5.60413
lfoot -26.7333 25.3677
ltoes -64.1913
100
root -22.2467 15.8679 6.52122 -173.371 -14.5018 -175.469
lowerback 5.29351 1.04318 2.88331
upperback -10.0907 1.22089 1.83339
thorax -13.9891 0.0817252 0.280548
lowerneck -7.49137 0.533879 -1.00565
upperneck 30.4663 -2.10165 1.74241
head 11.0829 -1.84852 0.377217
rclavicle 1.0461e-014 -1.92821e-014
rhumerus 16.2086 25.2044 -44.5843
rradius 137.288
rwrist -73.4322
rhand -38.3247 -13.1894
rfingers 7.12502
rthumb -11.3524 -42.8621
lclavicle 1.0461e-014 -1.92821e-014
lhumerus 26.1078 -34.7301 58.7639
lradius 130.35
lwrist 64.4638
lhand -38.1354 40.019
lfingers 7.12502
lthumb -11.1699 69.7016
rfemur 10.883 50.3156 43.1883
rtibia -9.07181
rfoot -58.8956 -41.817
rtoes 29.14
lfemur -3.53206 -26.373 -7.18664
ltibia 5.83623
lfoot -26.0749 25.2323
ltoes -64.6835
101
root -22.2522 15.8653 6.52083 -173.501 -14.5421 -175.461
lowerback 5.34529 0.716477 2.64683
upperback -10.0207 0.790827 2.31072
thorax -13.9587 -0.0664736 1.01283
lowerneck -7.19089 0.91694 -1.40731
upperneck 30.5493 -1.40046 1.32583
head 11.039 -1.64692 0.373969
rclavicle 4.03036e-014 -3.49861e-014
rhumerus 17.6456 27.1695 -43.9405
rradius 138.001
rwrist -71.956
rhand -40.4405 -14.4272
rfingers 7.12502
rthumb -13.3924 -43.9767
lclavicle 4.03036e-014 -3.49861e-014
lhumerus 25.2471 -35.4991 60.0679
lradius 131.033
lwrist 61.5836
lhand -39.5554 41.2745
lfingers 7.12502
lthumb -12.5392 70.8783
rfemur 10.998 50.16 43.2088
rtibia -9.11596
rfoot -58.6523 -41.9209
rtoes 29.1902
lfemur -3.61687 -25.8476 -7.17679
ltibia 6.14138
lfoot -25.4069 25.0984
ltoes -65.1561
102
root -22.2568 15.8619 6.52197 -173.595 -14.5819 -175.482
lowerback 5.40105 0.360194 2.28712
upperback -9.95311 0.308252 2.87106
thorax -13.9244 -0.223665 1.91671
lowerneck -6.9094 1.33342 -1.93121
upperneck 30.6153 -0.6341 0.911425
head 10.9927 -1.43017 0.398115
rclavicle 1.03368e-014 3.26007e-014
rhumerus 19.3119 29.1867 -43.0383
rradius 138.61
rwrist -70.8194
rhand -42.3807 -16.2982
rfingers 7.12502
rthumb -15.2619 -45.7151
lclavicle 1.03368e-014 3.26007e-014
lhumerus 24.1948 -36.053 61.4784
lradius 131.553
lwrist 58.8989
lhand -40.8106 42.978
lfingers 7.12502
lthumb -13.7491 72.5037
rfemur 11.0255 50.0182 43.1531
rtibia -9.09686
rfoot -58.4277 -41.9599
rtoes 29.2956
lfemur -3.77718 -25.3257 -7.17467
ltibia 6.5187
lfoot -24.8359 24.8947
ltoes -65.4892
103
root -22.26 15.8581 6.52488 -173.655 -14.6127 -175.515
lowerback 5.48072 -0.0132379 1.81002
upperback -9.90068 -0.211573 3.50968
thorax -13.9076 -0.384639 2.98408
lowerneck -6.6961 1.76499 -2.4117
upperneck 30.6996 0.189414 0.321037
head 10.9682 -1.20539 0.354238
rclavicle 2.69353e-014 4.21423e-014
rhumerus 21.194 31.1941 -41.9411
rradius 139.083
rwrist -69.9974
rhand -43.9844 -18.7013
rfingers 7.12502
rthumb -16.8062 -47.994
lclavicle 2.69353e-014 4.21423e-014
lhumerus 22.9998 -36.3662 62.9408
lradius 131.934
lwrist 56.4249
lhand -41.9673 45.125
lfingers 7.12502
lthumb -14.8637 74.5718
rfemur 10.9436 49.9043 43.031
rtibia -8.99271
rfoot -58.2241 -41.9294
rtoes 29.4776
lfemur -4.00996 -24.8164 -7.15512
ltibia 6.95702
lfoot -24.4505 24.5561
ltoes -65.719
104
root -22.2612 15.8544 6.52945 -173.688 -14.6284 -175.538
lowerback 5.65495 -0.544617 0.975002
upperback -9.88288 -0.979007 4.52624
thorax -13.9537 -0.610086 4.7332
lowerneck -6.56251 2.41436 -3.25598
upperneck 30.8343 1.41121 -0.407911
head 10.9753 -0.87108 0.362438
rclavicle 1.09332e-014 -1.27222e-014
rhumerus 23.9628 33.5399 -40.3147
rradius 139.354
rwrist -69.5463
rhand -45.2392 -21.4196
rfingers 7.12502
rthumb -18.0138 -50.6054
lclavicle 1.09332e-014 -1.27222e-014
lhumerus 21.1969 -35.87 64.7984
lradius 132.217
lwrist 54.1649
lhand -42.9291 47.4046
lfingers 7.12502
lthumb -15.79 76.7806
rfemur 10.7674 49.8247 42.8758
rtibia -8.82324
rfoot -58.056 -41.8469
rtoes 29.7355
lfemur -4.2995 -24.3249 -7.09417
ltibia 7.42919
lfoot -24.232 24.1126
ltoes -65.855
105
root -22.2603 15.8514 6.53542 -173.701 -14.6263 -175.545
lowerback 5.71256 -0.673622 1.5936
upperback -9.83572 -1.0792 4.49454
thorax -13.9349 -0.725254 4.36515
lowerneck -6.48315 2.63915 -3.99057
upperneck 30.9697 1.74998 -0.177338
head 10.9949 -0.797955 0.606368
rclavicle 5.14852e-014 -3.10104e-014
rhumerus 24.8649 34.7619 -40.0611
rradius 139.538
rwrist -68.8871
rhand -46.2152 -24.1087
rfingers 7.12502
rthumb -18.9527 -53.2053
lclavicle 5.14852e-014 -3.10104e-014
lhumerus 20.8624 -36.4135 65.3397
lradius 132.374
lwrist 52.8513
lhand -43.7116 49.6222
lfingers 7.12502
lthumb -16.5435 78.937
rfemur 10.537 49.7764 42.7136
rtibia -8.63114
rfoot -57.9381 -41.7502
rtoes 29.9885
lfemur -4.61339 -23.888 -7.00024
ltibia 7.90012
lfoot -24.1446 23.6415
ltoes -65.8502
106
root -22.2581 15.8495 6.54222 -173.706 -14.6089 -175.536
lowerback 5.77942 -0.793955 2.29373
upperback -9.78615 -1.15762 4.45667
thorax -13.9264 -0.838618 3.94245
lowerneck -6.49077 2.89611 -4.88925
upperneck 31.1851 2.11351 0.234021
head 11.0529 -0.716551 0.947415
rclavicle 6.16232e-015 2.06736e-014
rhumerus 25.7577 35.819 -39.8321
rradius 139.648
rwrist -68.3766
rhand -47.0837 -26.7203
rfingers 7.12502
rthumb -19.7878 -55.733
lclavicle 6.16232e-015 2.06736e-014
lhumerus 20.5631 -36.6822 65.7826
lradius 132.486
lwrist 52.1036
lhand -44.3053 51.4591
lfingers 7.12502
lthumb -17.1151 80.7252
rfemur 10.3075 49.7482 42.5748
rtibia -8.45806
rfoot -57.873 -41.6591
rtoes 30.1233
lfemur -4.91154 -23.5326 -6.89279
ltibia 8.33061
lfoot -24.1259 23.2256
ltoes -65.8795
107
root -22.2549 15.8487 6.54941 -173.709 -14.5814 -175.518
lowerback 5.85479 -0.899674 2.96126
upperback -9.73142 -1.21745 4.43836
thorax -13.9214 -0.937937 3.55833
lowerneck -6.53037 3.18323 -5.92371
upperneck 31.4418 2.48197 0.873305
head 11.12 -0.624787 1.39704
rclavicle 3.10104e-014 2.38542e-015
rhumerus 26.6014 36.6683 -39.5697
rradius 139.747
rwrist -68.1501
rhand -47.993 -29.0065
rfingers 7.12502
rthumb -20.6616 -57.9267
lclavicle 3.10104e-014 2.38542e-015
lhumerus 20.3299 -36.7514 66.1425
lradius 132.59
lwrist 51.8755
lhand -44.6819 52.8817
lfingers 7.12502
lthumb -17.4775 82.116
rfemur 10.1349 49.7266 42.483
rtibia -8.35834
rfoot -57.8407 -41.6011
rtoes 30.0971
lfemur -5.17297 -23.2411 -6.78419
ltibia 8.69549
lfoot -24.0901 22.9184
ltoes -65.9577
108
root -22.2509 15.849 6.5571 -173.71 -14.5464 -175.495
lowerback 5.94378 -0.979137 3.40272
upperback -9.67723 -1.26316 4.47764
thorax -13.9228 -1.00289 3.36428
lowerneck -6.5726 3.46344 -6.78616
upperneck 31.71 2.82198 1.48113
head 11.1889 -0.530213 1.80402
rclavicle 1.49089e-014 2.3059e-014
rhumerus 27.3449 37.3037 -39.2229
rradius 139.877
rwrist -68.2086
rhand -49.0147 -30.8716
rfingers 7.12502
rthumb -21.6432 -59.682
lclavicle 1.49089e-014 2.3059e-014
lhumerus 20.1817 -36.7541 66.432
lradius 132.701
lwrist 52.0404
lhand -44.9017 53.9843
lfingers 7.12502
lthumb -17.6891 83.1997
rfemur 10.033 49.7068 42.4337
rtibia -8.35469
rfoot -57.8072 -41.6015
rtoes 29.8495
lfemur -5.3958 -22.995 -6.67723
ltibia 8.98764
lfoot -24.0152 22.7276
ltoes -66.0481
109
root -22.2458 15.8505 6.56539 -173.708 -14.5049 -175.467
lowerback 6.05831 -1.03092 3.53936
upperback -9.6335 -1.30148 4.58919
thorax -13.9449 -1.02811 3.42257
lowerneck -6.60751 3.70487 -7.29208
upperneck 31.966 3.10804 1.87459
head 11.2609 -0.442039 2.06627
rclavicle 1.49089e-014 2.14687e-014
rhumerus 27.987 37.7927 -38.7732
rradius 140.008
rwrist -68.4582
rhand -50.1682 -32.1052
rfingers 7.12502
rthumb -22.7506 -60.7838
lclavicle 1.49089e-014 2.14687e-014
lhumerus 20.0923 -36.7783 66.6575
lradius 132.823
lwrist 52.4472
lhand -45.0846 54.9496
lfingers 7.12502
lthumb -17.8651 84.149
rfemur 9.97196 49.6912 42.4114
rtibia -8.40869
rfoot -57.7597 -41.6193
rtoes 29.4816
lfemur -5.58042 -22.7937 -6.56625
ltibia 9.20345
lfoot -23.9115 22.6526
ltoes -66.1417
110
root -22.2399 15.8528 6.57412 -173.705 -14.4619 -175.432
lowerback 6.20169 -1.05922 3.38182
upperback -9.60336 -1.33791 4.77031
thorax -13.9925 -1.01768 3.7259
lowerneck -6.62429 3.88786 -7.40113
upperneck 32.177 3.33068 1.97017
head 11.3294 -0.366384 2.14395
rclavicle -1.09332e-014 -2.38542e-014
rhumerus 28.5261 38.118 -38.1863
rradius 140.201
rwrist -68.8724
rhand -51.4359 -32.8617
rfingers 7.12502
rthumb -23.9666 -61.3858
lclavicle -1.09332e-014 -2.38542e-014
lhumerus 20.0368 -36.8318 66.8272
lradius 132.965
lwrist 52.9277
lhand -45.303 55.9454
lfingers 7.12502
lthumb -18.0752 85.1255
rfemur 9.93041 49.6771 42.4061
rtibia -8.49082
rfoot -57.6956 -41.6048
rtoes 29.2575
lfemur -5.73518 -22.6306 -6.44462
ltibia 9.35157
lfoot -23.7795 22.6782
ltoes -66.1749
111
root -22.2335 15.8556 6.58314 -173.695 -14.4244 -175.391
lowerback 6.3687 -1.06762 2.94446
upperback -9.59196 -1.37842 5.01514
thorax -14.069 -0.976154 4.26247
lowerneck -6.5859 4.01229 -7.08982
upperneck 32.3095 3.49736 1.71968
head 11.3789 -0.300395 2.01417
rclavicle 5.56597e-014 -8.50798e-014
rhumerus 28.9645 38.2492 -37.5187
rradius 140.467
rwrist -69.4242
rhand -52.5071 -33.5642
rfingers 7.12502
rthumb -24.9935 -61.9494
lclavicle 5.56597e-014 -8.50798e-014
lhumerus 19.9824 -36.898 66.972
lradius 133.114
lwrist 53.329
lhand -45.6148 56.9703
lfingers 7.12502
lthumb -18.3752 86.1224
rfemur 9.88048 49.6613 42.4009
rtibia -8.5655
rfoot -57.6229 -41.5252
rtoes 29.2813
lfemur -5.8778 -22.4912 -6.31283
ltibia 9.45353
lfoot -23.6277 22.7549
ltoes -66.2195
